<?xml version="1.0"?>
<svg xmlns="http://www.w3.org/2000/svg" xmlns:xlink="http://www.w3.org/1999/xlink" version="1.1" viewBox="0 0 172 172" width="48px" height="48px"><g fill="none" fill-rule="nonzero" stroke="none" stroke-width="1" stroke-linecap="butt" stroke-linejoin="miter" stroke-miterlimit="10" stroke-dasharray="" stroke-dashoffset="0" font-family="none" font-weight="none" font-size="none" text-anchor="none" style="mix-blend-mode: normal"><path d="M0,172v-172h172v172z" fill="none"/><g fill="#33c3f0"><g id="surface1"><path d="M156.23893,0h-140.47786c-8.5944,0 -15.76107,7.16667 -15.76107,15.76107v140.47786c0,8.5944 7.16667,15.76107 15.76107,15.76107h140.47786c8.5944,0 15.76107,-7.16667 15.76107,-15.76107v-140.47786c0,-8.5944 -7.16667,-15.76107 -15.76107,-15.76107zM50.16667,143.33333h-28.66667v-78.83333h28.66667zM35.83333,55.17774c-8.5944,0 -14.33333,-5.73893 -14.33333,-12.9056c0,-7.86654 5.73893,-13.60547 14.33333,-13.60547c8.5944,0 14.33333,5.73893 14.33333,12.9056c0,7.86654 -5.73893,13.60547 -14.33333,13.60547zM150.5,143.33333h-28.66667v-43c0,-11.47786 -7.89453,-14.33333 -10.02213,-14.33333c-2.1556,0 -11.47787,1.42774 -11.47787,14.33333c0,1.42774 0,43 0,43h-28.66667v-78.83333h28.66667v11.47787c4.3112,-6.4668 11.47787,-11.47787 25.08333,-11.47787c13.60547,0 25.08333,10.75 25.08333,35.83333z"/></g></g></g></svg>
